HIERARCHY
ROOT hip
{
  OFFSET 0 0 0
  CHANNELS 6 Xposition Yposition Zposition Zrotation Yrotation Xrotation
  JOINT abdomen
  {
    OFFSET 0 20.6881 -0.73152
    CHANNELS 3 Zrotation Xrotation Yrotation
    JOINT chest
    {
      OFFSET 0 11.7043 -0.48768
      CHANNELS 3 Zrotation Xrotation Yrotation
      JOINT neck
      {
        OFFSET 0 22.1894 -2.19456
        CHANNELS 3 Zrotation Xrotation Yrotation
        JOINT head
        {
          OFFSET -0.24384 7.07133 1.2192
          CHANNELS 3 Zrotation Xrotation Yrotation
          JOINT leftEye
          {
            OFFSET 4.14528 8.04674 8.04672
            CHANNELS 3 Zrotation Xrotation Yrotation
            End Site
            {
              OFFSET 1 0 0
            }
          }
          JOINT rightEye
          {
            OFFSET -3.6576 8.04674 8.04672
            CHANNELS 3 Zrotation Xrotation Yrotation
            End Site
            {
              OFFSET 1 0 0
            }
          }
        }
      }
      JOINT rCollar
      {
        OFFSET -2.68224 19.2634 -4.8768
        CHANNELS 3 Zrotation Xrotation Yrotation
        JOINT rShldr
        {
          OFFSET -8.77824 -1.95073 1.46304
          CHANNELS 3 Zrotation Xrotation Yrotation
          JOINT rForeArm
          {
            OFFSET -28.1742 -1.7115 0.48768
            CHANNELS 3 Zrotation Xrotation Yrotation
            JOINT rHand
            {
              OFFSET -22.5879 0.773209 7.07136
              CHANNELS 3 Zrotation Xrotation Yrotation
              JOINT rThumb1
              {
                OFFSET -1.2192 -0.487915 3.41376
                CHANNELS 3 Zrotation Xrotation Yrotation
                JOINT rThumb2
                {
                  OFFSET -3.37035 -0.52449 3.41376
                  CHANNELS 3 Zrotation Xrotation Yrotation
                  End Site
                  {
                    OFFSET -1.78271 -1.18214 1.43049
                  }
                }
              }
              JOINT rIndex1
              {
                OFFSET -7.75947 0.938293 5.60832
                CHANNELS 3 Zrotation Xrotation Yrotation
                JOINT rIndex2
                {
                  OFFSET -2.54057 -0.884171 1.56538
                  CHANNELS 3 Zrotation Xrotation Yrotation
                  End Site
                  {
                    OFFSET -1.62519 -0.234802 1.16502
                  }
                }
              }
              JOINT rMid1
              {
                OFFSET -8.24714 1.18213 3.41376
                CHANNELS 3 Zrotation Xrotation Yrotation
                JOINT rMid2
                {
                  OFFSET -3.10165 -0.590103 1.0647
                  CHANNELS 3 Zrotation Xrotation Yrotation
                  End Site
                  {
                    OFFSET -2.48547 -0.328903 0.83742
                  }
                }
              }
              JOINT rRing1
              {
                OFFSET -8.82822 0.546677 1.51678
                CHANNELS 3 Zrotation Xrotation Yrotation
                JOINT rRing2
                {
                  OFFSET -2.60934 -0.819778 -0.0198488
                  CHANNELS 3 Zrotation Xrotation Yrotation
                  End Site
                  {
                    OFFSET -2.33842 -0.294052 0.168128
                  }
                }
              }
              JOINT rPinky1
              {
                OFFSET -8.27202 -0.0477905 -0.4584
                CHANNELS 3 Zrotation Xrotation Yrotation
                JOINT rPinky2
                {
                  OFFSET -1.82734 -0.647385 -0.700984
                  CHANNELS 3 Zrotation Xrotation Yrotation
                  End Site
                  {
                    OFFSET -1.69225 -0.51767 -0.607171
                  }
                }
              }
            }
          }
        }
      }
      JOINT lCollar
      {
        OFFSET 2.68224 19.2634 -4.8768
        CHANNELS 3 Zrotation Xrotation Yrotation
        JOINT lShldr
        {
          OFFSET 8.77824 -1.95073 1.46304
          CHANNELS 3 Zrotation Xrotation Yrotation
          JOINT lForeArm
          {
            OFFSET 28.1742 -1.7115 0.48768
            CHANNELS 3 Zrotation Xrotation Yrotation
            JOINT lHand
            {
              OFFSET 22.5879 0.773209 7.07136
              CHANNELS 3 Zrotation Xrotation Yrotation
              JOINT lThumb1
              {
                OFFSET 1.2192 -0.487915 3.41376
                CHANNELS 3 Zrotation Xrotation Yrotation
                JOINT lThumb2
                {
                  OFFSET 3.37035 -0.52449 3.41376
                  CHANNELS 3 Zrotation Xrotation Yrotation
                  End Site
                  {
                    OFFSET 1.78271 -1.18214 1.43049
                  }
                }
              }
              JOINT lIndex1
              {
                OFFSET 7.75947 0.938293 5.60832
                CHANNELS 3 Zrotation Xrotation Yrotation
                JOINT lIndex2
                {
                  OFFSET 2.54057 -0.884171 1.56538
                  CHANNELS 3 Zrotation Xrotation Yrotation
                  End Site
                  {
                    OFFSET 1.62519 -0.234802 1.16502
                  }
                }
              }
              JOINT lMid1
              {
                OFFSET 8.24714 1.18213 3.41376
                CHANNELS 3 Zrotation Xrotation Yrotation
                JOINT lMid2
                {
                  OFFSET 3.10165 -0.590103 1.0647
                  CHANNELS 3 Zrotation Xrotation Yrotation
                  End Site
                  {
                    OFFSET 2.48547 -0.328903 0.83742
                  }
                }
              }
              JOINT lRing1
              {
                OFFSET 8.82822 0.546677 1.51678
                CHANNELS 3 Zrotation Xrotation Yrotation
                JOINT lRing2
                {
                  OFFSET 2.60934 -0.819778 -0.0198488
                  CHANNELS 3 Zrotation Xrotation Yrotation
                  End Site
                  {
                    OFFSET 2.33842 -0.294052 0.168128
                  }
                }
              }
              JOINT lPinky1
              {
                OFFSET 8.27202 -0.0477905 -0.4584
                CHANNELS 3 Zrotation Xrotation Yrotation
                JOINT lPinky2
                {
                  OFFSET 1.82734 -0.647385 -0.700984
                  CHANNELS 3 Zrotation Xrotation Yrotation
                  End Site
                  {
                    OFFSET 1.69225 -0.51767 -0.607171
                  }
                }
              }
            }
          }
        }
      }
    }
  }
  JOINT rButtock
  {
    OFFSET -8.77824 4.35084 1.2192
    CHANNELS 3 Zrotation Xrotation Yrotation
    JOINT rThigh
    {
      OFFSET 0 -1.70687 -2.19456
      CHANNELS 3 Zrotation Xrotation Yrotation
      JOINT rShin
      {
        OFFSET 0 -36.8199 0.73152
        CHANNELS 3 Zrotation Xrotation Yrotation
        JOINT rFoot
        {
          OFFSET 0.73152 -45.1104 -5.12064
          CHANNELS 3 Zrotation Xrotation Yrotation
          End Site
          {
            OFFSET -1.1221 -3.69964 12.103
          }
        }
      }
    }
  }
  JOINT lButtock
  {
    OFFSET 8.77824 4.35084 1.2192
    CHANNELS 3 Zrotation Xrotation Yrotation
    JOINT lThigh
    {
      OFFSET 0 -1.70687 -2.19456
      CHANNELS 3 Zrotation Xrotation Yrotation
      JOINT lShin
      {
        OFFSET 0 -36.8199 0.73152
        CHANNELS 3 Zrotation Xrotation Yrotation
        JOINT lFoot
        {
          OFFSET -0.73152 -45.1104 -5.12064
          CHANNELS 3 Zrotation Xrotation Yrotation
          End Site
          {
            OFFSET 1.1221 -3.69964 12.103
          }
        }
      }
    }
  }
}
MOTION
Frames:	4
Frame Time:	0.00833333
6.79389 73.6629 -96.7118 0.768 0.3853 38.0252 5.04724 33.7653 -1.67876 2.64497 -12.5815 0.247271 -8.84144 -9.59454 -4.07566 6.72585 -20.9604 -3.12361 -0.0 0.0 0.0 -0.0 0.0 0.0 2.31879e-14 1.45165e-13 4.45328e-14 82.4349 22.1417 -27.0696 -27.3687 -27.6579 63.521 -0.21143 -12.9846 -1.85711 -1.79258e-10 -5.59549e-10 -3.81909e-09 -2.69094e-10 -9.54989e-10 -6.59757e-09 -1.79256e-10 -5.59551e-10 -3.8191e-09 7.73091 5.47488 0.417314 -1.7926e-10 -5.5955e-10 -3.81909e-09 2.90554 0.965183 0.102902 -1.79251e-10 -5.59551e-10 -3.81909e-09 10.2786 0.731801 0.0259123 -1.79262e-10 -5.59551e-10 -3.81908e-09 2.22167 -0.733487 -0.20892 2.31305e-14 1.4516e-13 4.42533e-14 -85.1735 30.1171 20.7872 23.9071 -18.9246 -49.3179 0.620359 -21.8206 3.2255 1.03256e-09 -1.65335e-09 1.88175e-09 1.74417e-09 -2.83594e-09 3.26238e-09 1.03256e-09 -1.65335e-09 1.88176e-09 -7.73091 5.47488 -0.417314 1.03256e-09 -1.65335e-09 1.88175e-09 -2.90554 0.965183 -0.102902 1.03255e-09 -1.65335e-09 1.88175e-09 -10.2786 0.731801 -0.0259123 1.03255e-09 -1.65335e-09 1.88175e-09 -2.22167 -0.733487 0.20892 -2.03217e-16 0.0 -3.88251e-19 -9.14437 -76.6516 -9.2892 -0.904079 57.8281 1.49678 -3.30745 -13.4634 -9.0616 2.03217e-16 0.0 3.88251e-19 -4.34892 -76.6134 -5.38541 0.834634 56.2144 -1.35431 1.53824 -15.3541 3.3308
6.78856 73.2683 -96.7748 0.669 0.0048 38.8873 5.10263 34.011 -1.56954 2.58839 -12.6468 0.277543 -8.87732 -9.60721 -4.12576 6.8969 -22.1604 -3.12684 -0.0 0.0 0.0 -0.0 0.0 0.0 3.26425e-14 1.11324e-13 1.56543e-14 82.9892 21.8312 -28.1673 -27.3446 -27.5652 63.3728 -0.217544 -13.1692 -1.88445 -2.66224e-10 -5.91796e-10 -3.16697e-09 -4.25607e-10 -1.0111e-09 -5.47279e-09 -2.66222e-10 -5.91799e-10 -3.16698e-09 7.73091 5.47488 0.417314 -2.66226e-10 -5.91798e-10 -3.16697e-09 2.90554 0.965183 0.102902 -2.66218e-10 -5.91799e-10 -3.16697e-09 10.2786 0.731801 0.0259123 -2.66228e-10 -5.91799e-10 -3.16696e-09 2.22167 -0.733487 -0.20892 3.2561e-14 1.11315e-13 1.53561e-14 -86.0558 30.4912 22.2296 23.9838 -19.067 -49.5583 0.722709 -23.4064 3.48781 9.36071e-10 -1.34249e-09 1.46075e-09 1.58508e-09 -2.30146e-09 2.53411e-09 9.36077e-10 -1.34248e-09 1.46076e-09 -7.73091 5.47488 -0.417314 9.36074e-10 -1.34248e-09 1.46075e-09 -2.90554 0.965183 -0.102902 9.36067e-10 -1.34248e-09 1.46075e-09 -10.2786 0.731801 -0.0259123 9.36069e-10 -1.34248e-09 1.46075e-09 -2.22167 -0.733487 0.20892 -2.03217e-16 0.0 -3.88251e-19 -9.39043 -78.0219 -9.65641 -0.95185 58.7077 1.55272 -3.35708 -13.6272 -9.12147 2.03217e-16 0.0 3.88251e-19 -4.43318 -78.0275 -5.60869 0.887381 57.2774 -1.41597 1.61674 -15.6424 3.5088
6.84412 72.9188 -96.7664 0.6523 -0.5269 39.5957 5.03788 34.3534 -1.32892 2.51137 -12.7504 0.332211 -8.86789 -9.80897 -4.12744 6.9571 -23.2119 -3.0457 -0.0 0.0 0.0 -0.0 0.0 0.0 1.65995e-14 4.03847e-14 -9.56884e-15 83.552 21.4525 -29.1788 -27.3219 -27.479 63.235 -0.225885 -13.4176 -1.92129 -3.46768e-11 -2.42793e-10 -1.65186e-09 -4.24647e-11 -4.15662e-10 -2.85377e-09 -3.46735e-11 -2.42795e-10 -1.65187e-09 7.73091 5.47488 0.417314 -3.46786e-11 -2.42795e-10 -1.65186e-09 2.90554 0.965183 0.102902 -3.46711e-11 -2.42795e-10 -1.65186e-09 10.2786 0.731801 0.0259123 -3.46801e-11 -2.42796e-10 -1.65185e-09 2.22167 -0.733487 -0.20892 1.65242e-14 4.03714e-14 -9.84256e-15 -86.9152 30.9335 23.573 24.075 -19.2385 -49.8437 0.83263 -25.0325 3.76153 6.35162e-10 -7.79339e-10 7.0726e-10 1.08327e-09 -1.34198e-09 1.22941e-09 6.35166e-10 -7.79335e-10 7.07269e-10 -7.73091 5.47488 -0.417314 6.35164e-10 -7.79336e-10 7.07258e-10 -2.90554 0.965183 -0.102902 6.35158e-10 -7.79333e-10 7.0726e-10 -10.2786 0.731801 -0.0259123 6.35161e-10 -7.79333e-10 7.07254e-10 -2.22167 -0.733487 0.20892 -2.03217e-16 0.0 -3.88251e-19 -9.60578 -79.3534 -9.96029 -1.0047 59.6216 1.61402 -3.40725 -13.8553 -9.15192 2.03217e-16 0.0 3.88251e-19 -4.36286 -79.3946 -5.60628 0.946555 58.3949 -1.48576 1.73431 -15.9363 3.78975
7.02118 72.1564 -97.3075 0.0335 -1.674 41.8579 4.87868 34.7421 -0.983606 2.41822 -12.8703 0.40555 -8.83819 -10.0965 -4.10032 6.97634 -24.212 -2.90902 -0.0 0.0 0.0 -0.0 0.0 0.0 -1.4885e-14 -5.9428e-14 -3.56819e-14 84.1091 21.0374 -30.0954 -27.2962 -27.3823 63.0814 -0.235932 -13.708 -1.96448 3.97002e-10 3.55327e-10 5.34879e-10 6.78428e-10 6.05351e-10 9.2756e-10 3.97007e-10 3.55327e-10 5.34871e-10 7.73091 5.47488 0.417314 3.97001e-10 3.55326e-10 5.34883e-10 2.90554 0.965183 0.102902 3.97008e-10 3.55326e-10 5.3488e-10 10.2786 0.731801 0.0259123 3.97e-10 3.55324e-10 5.3489e-10 2.22167 -0.733487 -0.20892 -1.49336e-14 -5.94454e-14 -3.59024e-14 -87.7646 31.4382 24.8388 24.1777 -19.4337 -50.1701 0.960988 -26.7589 4.0607 1.68332e-10 1.79134e-12 -3.26628e-10 3.02846e-10 -1.34615e-11 -5.61376e-10 1.68335e-10 1.79368e-12 -3.26618e-10 -7.73091 5.47488 -0.417314 1.68335e-10 1.79323e-12 -3.26626e-10 -2.90554 0.965183 -0.102902 1.68329e-10 1.79518e-12 -3.26626e-10 -10.2786 0.731801 -0.0259123 1.68335e-10 1.79645e-12 -3.26631e-10 -2.22167 -0.733487 0.20892 -2.03217e-16 0.0 -3.88251e-19 -9.71155 -80.6647 -10.1372 -1.06305 60.5648 1.68102 -3.45656 -14.1301 -9.15753 2.03217e-16 0.0 3.88251e-19 -4.04901 -80.7337 -5.3214 1.01361 59.5658 -1.56467 1.88124 -16.2467 4.1405
